<svg width="105" height="26" viewBox="0 0 105 26" fill="none" xmlns="http://www.w3.org/2000/svg">
<path d="M10.414 5.02484L6.88924 14.5819H13.9387L10.414 5.02484ZM0 24.1718H2.81978L11.4714 0.656842H12.2404L20.9561 24.1718H23.8079V24.6316H13.9387V24.1718H17.4955L14.1309 15.0417H6.69698L3.33247 24.1718H6.88924V24.6316H0V24.1718Z" fill="#484642"/>
<path d="M24.6798 24.1718H27.1471V1.41221H24.6798V0.952421H29.9028V16.6509H30.2553L36.6319 11.0021H34.3568V10.5423H39.3235V11.0021H37.4009L32.4022 15.4029L39.4837 24.1718H40.8615V24.6316H33.6519V24.1718H35.9269L30.2553 17.1107H29.9028V24.1718H31.6652V24.6316H24.6798V24.1718Z" fill="#484642"/>
<path d="M50.7022 16.5853H50.6381C50.5954 16.8699 50.2429 17.1545 49.5807 17.4392L47.1775 18.4244C46.4939 18.7091 45.9705 19.1141 45.6074 19.6396C45.2442 20.1432 45.0626 20.7781 45.0626 21.5444C45.0626 21.8728 45.0947 22.2122 45.1588 22.5625C45.2229 22.9128 45.3404 23.2303 45.5113 23.5149C45.6822 23.7777 45.9171 23.9966 46.2162 24.1718C46.5366 24.3469 46.9425 24.4345 47.4338 24.4345C48.1388 24.4345 48.7049 24.2813 49.1321 23.9747C49.5807 23.6682 49.9118 23.2851 50.1254 22.8253C50.3604 22.3655 50.51 21.8728 50.574 21.3474C50.6595 20.8 50.7022 20.3074 50.7022 19.8695V16.5853ZM56.3097 24.2703C56.032 24.4893 55.7009 24.6754 55.3164 24.8286C54.9319 25.0038 54.4619 25.0914 53.9065 25.0914C52.8811 25.0914 52.1335 24.8724 51.6635 24.4345C51.2149 23.9747 50.9052 23.3398 50.7343 22.5297H50.6702C50.5847 22.7267 50.4672 22.9785 50.3177 23.2851C50.1682 23.5697 49.9332 23.8543 49.6128 24.1389C49.3137 24.4017 48.9078 24.6206 48.3951 24.7958C47.8824 24.9928 47.2309 25.0914 46.4405 25.0914C45.5433 25.0914 44.8277 24.9819 44.2936 24.7629C43.7596 24.5659 43.343 24.3141 43.0439 24.0076C42.7449 23.7011 42.5419 23.3617 42.4351 22.9895C42.3497 22.5954 42.307 22.2341 42.307 21.9057C42.307 21.1394 42.4565 20.5263 42.7556 20.0665C43.0546 19.6067 43.4391 19.2455 43.9091 18.9827C44.4004 18.6981 44.9345 18.4682 45.5113 18.2931C46.1094 18.1179 46.7075 17.9318 47.3057 17.7347C48.0106 17.4939 48.5874 17.2859 49.036 17.1107C49.5059 16.9356 49.8691 16.7276 50.1254 16.4867C50.3818 16.224 50.5527 15.9065 50.6381 15.5343C50.7449 15.1402 50.7983 14.6147 50.7983 13.9579C50.7983 13.4324 50.7663 12.9617 50.7022 12.5457C50.6381 12.1297 50.5206 11.7794 50.3497 11.4947C50.1788 11.1882 49.9332 10.9583 49.6128 10.8051C49.2923 10.6518 48.8651 10.5752 48.331 10.5752C47.6261 10.5752 47.0386 10.7065 46.5687 10.9693C46.1201 11.2101 45.8958 11.6152 45.8958 12.1844C45.8958 12.5566 45.9278 12.9288 45.9919 13.3011C46.056 13.6514 46.088 13.9141 46.088 14.0893C46.088 14.3958 45.9812 14.6585 45.7676 14.8775C45.554 15.0745 45.2442 15.1731 44.8384 15.1731C44.1334 15.1731 43.6955 15.0417 43.5246 14.7789C43.3537 14.5162 43.2682 14.1768 43.2682 13.7608C43.2682 13.2792 43.3751 12.8194 43.5887 12.3815C43.8023 11.9436 44.112 11.5604 44.5179 11.232C44.9452 10.8817 45.4685 10.608 46.088 10.4109C46.7289 10.2139 47.4552 10.1154 48.2669 10.1154C49.2496 10.1154 50.072 10.2467 50.7343 10.5095C51.3965 10.7503 51.9305 11.0897 52.3364 11.5276C52.7423 11.9436 53.0307 12.4253 53.2016 12.9726C53.3725 13.4981 53.4579 14.0564 53.4579 14.6476V22.8253C53.4579 23.4602 53.554 23.8872 53.7463 24.1061C53.9385 24.3251 54.2163 24.4345 54.5794 24.4345C54.8144 24.4345 55.0601 24.3907 55.3164 24.3032C55.5727 24.2156 55.8184 24.0842 56.0534 23.9091L56.3097 24.2703Z" fill="#484642"/>
<path d="M70.7113 21.0189C70.6472 21.2598 70.519 21.6101 70.3268 22.0699C70.1559 22.5078 69.8675 22.9566 69.4616 23.4164C69.0771 23.8543 68.543 24.2484 67.8595 24.5987C67.1972 24.9272 66.3321 25.0914 65.264 25.0914C64.4522 25.0914 63.6084 24.96 62.7326 24.6973C61.8567 24.4345 61.0557 24.0185 60.3294 23.4493C59.6031 22.8581 59.0049 22.0918 58.535 21.1503C58.0864 20.2088 57.8621 19.0484 57.8621 17.6691C57.8621 16.5962 58.0543 15.6 58.4388 14.6804C58.8447 13.7608 59.3788 12.9617 60.041 12.2829C60.7246 11.6042 61.515 11.0787 62.4122 10.7065C63.3307 10.3124 64.3027 10.1154 65.3281 10.1154C65.9048 10.1154 66.4923 10.192 67.0904 10.3453C67.7099 10.4766 68.2653 10.6956 68.7567 11.0021C69.2693 11.2867 69.6859 11.6699 70.0063 12.1516C70.3481 12.6114 70.519 13.1806 70.519 13.8594C70.519 14.3192 70.3695 14.7023 70.0704 15.0088C69.7927 15.2935 69.3868 15.4358 68.8528 15.4358C68.4896 15.4358 68.1372 15.3592 67.7954 15.2059C67.4749 15.0307 67.3147 14.7461 67.3147 14.352C67.3147 14.0455 67.3895 13.6733 67.539 13.2354C67.6886 12.7975 67.7633 12.4362 67.7633 12.1516C67.7633 11.648 67.5177 11.2648 67.0263 11.0021C66.535 10.7175 65.9689 10.5752 65.3281 10.5752C64.8581 10.5752 64.3668 10.6408 63.8541 10.7722C63.3628 10.8817 62.9035 11.1773 62.4762 11.6589C62.0704 12.1406 61.7286 12.8632 61.4509 13.8265C61.1945 14.7899 61.0664 16.1036 61.0664 17.7676C61.0664 18.7091 61.1198 19.5958 61.2266 20.4278C61.3547 21.2598 61.5684 21.9933 61.8674 22.6282C62.1879 23.2413 62.6151 23.7339 63.1491 24.1061C63.7046 24.4564 64.4202 24.6316 65.296 24.6316C66.236 24.6316 67.005 24.4893 67.6031 24.2046C68.2226 23.92 68.7033 23.5806 69.0451 23.1865C69.4082 22.7705 69.6752 22.3545 69.8461 21.9385C70.017 21.5225 70.1452 21.1832 70.2306 20.9204L70.7113 21.0189Z" fill="#484642"/>
<path d="M99.3925 16.5853H99.3284C99.2857 16.8699 98.9332 17.1545 98.271 17.4392L95.8678 18.4244C95.1842 18.7091 94.6608 19.1141 94.2977 19.6396C93.9345 20.1432 93.7529 20.7781 93.7529 21.5444C93.7529 21.8728 93.785 22.2122 93.849 22.5625C93.9131 22.9128 94.0306 23.2303 94.2015 23.5149C94.3724 23.7777 94.6074 23.9966 94.9065 24.1718C95.2269 24.3469 95.6328 24.4345 96.1241 24.4345C96.829 24.4345 97.3951 24.2813 97.8224 23.9747C98.271 23.6682 98.6021 23.2851 98.8157 22.8253C99.0507 22.3655 99.2002 21.8728 99.2643 21.3474C99.3497 20.8 99.3925 20.3074 99.3925 19.8695V16.5853ZM105 24.2703C104.722 24.4893 104.391 24.6754 104.007 24.8286C103.622 25.0038 103.152 25.0914 102.597 25.0914C101.571 25.0914 100.824 24.8724 100.354 24.4345C99.9052 23.9747 99.5954 23.3398 99.4245 22.5297H99.3604C99.275 22.7267 99.1575 22.9785 99.008 23.2851C98.8584 23.5697 98.6235 23.8543 98.303 24.1389C98.004 24.4017 97.5981 24.6206 97.0854 24.7958C96.5727 24.9928 95.9212 25.0914 95.1308 25.0914C94.2336 25.0914 93.5179 24.9819 92.9839 24.7629C92.4498 24.5659 92.0333 24.3141 91.7342 24.0076C91.4351 23.7011 91.2322 23.3617 91.1254 22.9895C91.0399 22.5954 90.9972 22.2341 90.9972 21.9057C90.9972 21.1394 91.1468 20.5263 91.4458 20.0665C91.7449 19.6067 92.1294 19.2455 92.5994 18.9827C93.0907 18.6981 93.6247 18.4682 94.2015 18.2931C94.7997 18.1179 95.3978 17.9318 95.9959 17.7347C96.7009 17.4939 97.2776 17.2859 97.7262 17.1107C98.1962 16.9356 98.5594 16.7276 98.8157 16.4867C99.072 16.224 99.2429 15.9065 99.3284 15.5343C99.4352 15.1402 99.4886 14.6147 99.4886 13.9579C99.4886 13.4324 99.4566 12.9617 99.3925 12.5457C99.3284 12.1297 99.2109 11.7794 99.04 11.4947C98.8691 11.1882 98.6235 10.9583 98.303 10.8051C97.9826 10.6518 97.5553 10.5752 97.0213 10.5752C96.3163 10.5752 95.7289 10.7065 95.2589 10.9693C94.8103 11.2101 94.586 11.6152 94.586 12.1844C94.586 12.5566 94.6181 12.9288 94.6822 13.3011C94.7462 13.6514 94.7783 13.9141 94.7783 14.0893C94.7783 14.3958 94.6715 14.6585 94.4579 14.8775C94.2442 15.0745 93.9345 15.1731 93.5286 15.1731C92.8237 15.1731 92.3857 15.0417 92.2149 14.7789C92.044 14.5162 91.9585 14.1768 91.9585 13.7608C91.9585 13.2792 92.0653 12.8194 92.2789 12.3815C92.4926 11.9436 92.8023 11.5604 93.2082 11.232C93.6354 10.8817 94.1588 10.608 94.7783 10.4109C95.4192 10.2139 96.1455 10.1154 96.9572 10.1154C97.9399 10.1154 98.7623 10.2467 99.4245 10.5095C100.087 10.7503 100.621 11.0897 101.027 11.5276C101.433 11.9436 101.721 12.4253 101.892 12.9726C102.063 13.4981 102.148 14.0564 102.148 14.6476V22.8253C102.148 23.4602 102.244 23.8872 102.437 24.1061C102.629 24.3251 102.907 24.4345 103.27 24.4345C103.505 24.4345 103.75 24.3907 104.007 24.3032C104.263 24.2156 104.509 24.0842 104.744 23.9091L105 24.2703Z" fill="#484642"/>
<path d="M84.1448 4.78947C84.1448 7.43463 81.8083 9.57895 81.8083 9.57895C81.8083 9.57895 79.4719 7.43463 79.4719 4.78947C79.4719 2.14432 81.8083 0 81.8083 0C81.8083 0 84.1448 2.14432 84.1448 4.78947Z" fill="#484642"/>
<path d="M80.0723 11.5972C81.8972 13.4676 81.7245 16.6772 81.7245 16.6772C81.7245 16.6772 78.593 16.8542 76.7681 14.9838C74.9432 13.1134 75.1159 9.90383 75.1159 9.90383C75.1159 9.90383 78.2474 9.72676 80.0723 11.5972Z" fill="#484642"/>
<path d="M80.0723 19.1235C81.8972 20.9939 81.7245 24.2035 81.7245 24.2035C81.7245 24.2035 78.593 24.3806 76.7681 22.5102C74.9432 20.6397 75.1159 17.4301 75.1159 17.4301C75.1159 17.4301 78.2474 17.2531 80.0723 19.1235Z" fill="#484642"/>
<path d="M83.4439 11.5972C81.619 13.4676 81.7918 16.6772 81.7918 16.6772C81.7918 16.6772 84.9233 16.8542 86.7482 14.9838C88.5731 13.1134 88.4003 9.90383 88.4003 9.90383C88.4003 9.90383 85.2688 9.72676 83.4439 11.5972Z" fill="#484642"/>
<path d="M83.4439 19.1235C81.619 20.9939 81.7918 24.2035 81.7918 24.2035C81.7918 24.2035 84.9233 24.3806 86.7482 22.5102C88.5731 20.6397 88.4003 17.4301 88.4003 17.4301C88.4003 17.4301 85.2688 17.2531 83.4439 19.1235Z" fill="#484642"/>
<path d="M81.4745 7.86842C81.4745 7.67948 81.624 7.52632 81.8083 7.52632C81.9927 7.52632 82.1421 7.67948 82.1421 7.86842V25.6579C82.1421 25.8468 81.9927 26 81.8083 26C81.624 26 81.4745 25.8468 81.4745 25.6579V7.86842Z" fill="#484642"/>
</svg>
